<svg xmlns="http://www.w3.org/2000/svg" viewBox="0 0 1200 1500" width="1200" height="1500" role="img">
  <defs>
    <linearGradient id="skycanvaslowsneaker1" x1="0" y1="0" x2="0.3" y2="1">
      <stop offset="0%" stop-color="#C6C3BF"/>
      <stop offset="100%" stop-color="#b6b3af"/>
    </linearGradient>
    <radialGradient id="vigcanvaslowsneaker1" cx="50%" cy="44%" r="82%">
      <stop offset="68%" stop-color="#000" stop-opacity="0"/>
      <stop offset="100%" stop-color="#000" stop-opacity="0.2"/>
    </radialGradient>
    <filter id="graincanvaslowsneaker1" x="0" y="0" width="100%" height="100%">
      <feTurbulence type="fractalNoise" baseFrequency="0.85" numOctaves="3" stitchTiles="stitch" result="n"/>
      <feColorMatrix type="saturate" values="0" in="n" result="g"/>
      <feComponentTransfer in="g" result="grain">
        <feFuncA type="linear" slope="0.5"/>
      </feComponentTransfer>
    </filter>
    <clipPath id="framecanvaslowsneaker1">
      <rect x="0" y="0" width="1200" height="1500"/>
    </clipPath>
  </defs>

  <g clip-path="url(#framecanvaslowsneaker1)">
    <rect width="1200" height="1500" fill="url(#skycanvaslowsneaker1)"/>
    <g transform="rotate(-1.64 973.28 1089.03)"><polygon points="798.65,944.53 1149.17,942.66 1150.03,1230.18 796.75,1235.51" fill="#57534F" opacity="0.95"/></g>
    <g transform="rotate(-7.73 663.83 1260.48)"><polygon points="537.33,1145.22 790.51,1140.78 795.33,1379.72 536.11,1377.44" fill="#95918C" opacity="0.93"/></g>
    <g transform="rotate(1.16 588.72 1008.91)"><polygon points="400.91,870.26 769.07,870.74 777.46,1143.25 405.66,1147.47" fill="#141211" opacity="0.99"/></g>
    <g transform="rotate(0.81 989.19 374.07)"><polygon points="744.93,221.64 1241.93,221.14 1245.27,527.6 737.48,526.98" fill="#57534F" opacity="0.99"/></g>
    <g transform="rotate(-3.68 166.16 201.68)"><polygon points="27.52,93.99 302.62,90.58 305.86,310.48 27.26,313" fill="#C6C3BF" opacity="0.99"/></g>
    <rect width="1200" height="1500" fill="url(#vigcanvaslowsneaker1)"/>
    <rect width="1200" height="1500" filter="url(#graincanvaslowsneaker1)" opacity="0.13" style="mix-blend-mode:overlay"/>
    
  </g>
</svg>
