<svg xmlns="http://www.w3.org/2000/svg" viewBox="0 0 1200 1500" width="1200" height="1500" role="img">
  <defs>
    <linearGradient id="skyheavyknitsweater0" x1="0" y1="0" x2="0.3" y2="1">
      <stop offset="0%" stop-color="#E5D9C4"/>
      <stop offset="100%" stop-color="#dacbb2"/>
    </linearGradient>
    <radialGradient id="vigheavyknitsweater0" cx="50%" cy="44%" r="82%">
      <stop offset="68%" stop-color="#000" stop-opacity="0"/>
      <stop offset="100%" stop-color="#000" stop-opacity="0.2"/>
    </radialGradient>
    <filter id="grainheavyknitsweater0" x="0" y="0" width="100%" height="100%">
      <feTurbulence type="fractalNoise" baseFrequency="0.85" numOctaves="3" stitchTiles="stitch" result="n"/>
      <feColorMatrix type="saturate" values="0" in="n" result="g"/>
      <feComponentTransfer in="g" result="grain">
        <feFuncA type="linear" slope="0.5"/>
      </feComponentTransfer>
    </filter>
    <clipPath id="frameheavyknitsweater0">
      <rect x="0" y="0" width="1200" height="1500"/>
    </clipPath>
  </defs>

  <g clip-path="url(#frameheavyknitsweater0)">
    <rect width="1200" height="1500" fill="url(#skyheavyknitsweater0)"/>
    <polygon points="-240,-450 1440,-661.55 1440,-361.55 -240,-150" fill="#E5D9C4" opacity="0.91"/>
    <polygon points="-240,-150 1440,-361.55 1440,-61.55 -240,150" fill="#C2AC8B" opacity="0.66"/>
    <polygon points="-240,150 1440,-61.55 1440,238.45 -240,450" fill="#95795A" opacity="0.86"/>
    <polygon points="-240,450 1440,238.45 1440,538.45 -240,750" fill="#C2AC8B" opacity="0.9"/>
    <polygon points="-240,750 1440,538.45 1440,838.45 -240,1050" fill="#E5D9C4" opacity="0.92"/>
    <polygon points="-240,1050 1440,838.45 1440,1138.45 -240,1350" fill="#C2AC8B" opacity="0.72"/>
    <polygon points="-240,1350 1440,1138.45 1440,1438.45 -240,1650" fill="#95795A" opacity="0.93"/>
    <polygon points="-240,1650 1440,1438.45 1440,1738.45 -240,1950" fill="#C2AC8B" opacity="0.83"/>
    <polygon points="-240,1032.51 1440,820.96 1440,868.96 -240,1080.51" fill="#3A2A1C" opacity="0.75"/>
    <rect width="1200" height="1500" fill="url(#vigheavyknitsweater0)"/>
    <rect width="1200" height="1500" filter="url(#grainheavyknitsweater0)" opacity="0.13" style="mix-blend-mode:overlay"/>
    <text x="54" y="1447.5" font-family="Helvetica, Arial, sans-serif" font-size="31.2" letter-spacing="9.6" fill="#2C2116" opacity="0.45">HEAVY KNIT SWEATER</text>
  </g>
</svg>
