<svg xmlns="http://www.w3.org/2000/svg" viewBox="0 0 1200 1500" width="1200" height="1500" role="img">
  <defs>
    <linearGradient id="skysinglefoldtote2" x1="0" y1="0" x2="0.3" y2="1">
      <stop offset="0%" stop-color="#E5D9C4"/>
      <stop offset="100%" stop-color="#dacbb2"/>
    </linearGradient>
    <radialGradient id="vigsinglefoldtote2" cx="50%" cy="44%" r="82%">
      <stop offset="68%" stop-color="#000" stop-opacity="0"/>
      <stop offset="100%" stop-color="#000" stop-opacity="0.2"/>
    </radialGradient>
    <filter id="grainsinglefoldtote2" x="0" y="0" width="100%" height="100%">
      <feTurbulence type="fractalNoise" baseFrequency="0.85" numOctaves="3" stitchTiles="stitch" result="n"/>
      <feColorMatrix type="saturate" values="0" in="n" result="g"/>
      <feComponentTransfer in="g" result="grain">
        <feFuncA type="linear" slope="0.5"/>
      </feComponentTransfer>
    </filter>
    <clipPath id="framesinglefoldtote2">
      <rect x="0" y="0" width="1200" height="1500"/>
    </clipPath>
  </defs>

  <g clip-path="url(#framesinglefoldtote2)">
    <rect width="1200" height="1500" fill="url(#skysinglefoldtote2)"/>
    <g transform="rotate(4.98 376.48 1218)"><polygon points="225.58,1087.48 529.03,1081.96 529.09,1352.18 223.9,1354.38" fill="#95795A" opacity="0.96"/></g>
    <g transform="rotate(3.53 454.81 1043.95)"><polygon points="264.37,926.68 644.86,928.7 645.01,1159.9 267,1160.3" fill="#C2AC8B" opacity="0.89"/></g>
    <g transform="rotate(8.05 563.48 1334.84)"><polygon points="385.63,1119.38 743.03,1115.93 748.21,1551.14 379.64,1550.21" fill="#3A2A1C" opacity="0.9"/></g>
    <g transform="rotate(-5.97 989.95 922.38)"><polygon points="812.33,739.24 1161.47,737.51 1169.72,1102.88 811.71,1110.91" fill="#95795A" opacity="0.98"/></g>
    <rect width="1200" height="1500" fill="url(#vigsinglefoldtote2)"/>
    <rect width="1200" height="1500" filter="url(#grainsinglefoldtote2)" opacity="0.13" style="mix-blend-mode:overlay"/>
    
  </g>
</svg>
