<svg xmlns="http://www.w3.org/2000/svg" viewBox="0 0 1200 1500" width="1200" height="1500" role="img">
  <defs>
    <linearGradient id="skystudiojacket1" x1="0" y1="0" x2="0.3" y2="1">
      <stop offset="0%" stop-color="#383B2E"/>
      <stop offset="100%" stop-color="#434535"/>
    </linearGradient>
    <radialGradient id="vigstudiojacket1" cx="50%" cy="44%" r="82%">
      <stop offset="68%" stop-color="#000" stop-opacity="0"/>
      <stop offset="100%" stop-color="#000" stop-opacity="0.2"/>
    </radialGradient>
    <filter id="grainstudiojacket1" x="0" y="0" width="100%" height="100%">
      <feTurbulence type="fractalNoise" baseFrequency="0.85" numOctaves="3" stitchTiles="stitch" result="n"/>
      <feColorMatrix type="saturate" values="0" in="n" result="g"/>
      <feComponentTransfer in="g" result="grain">
        <feFuncA type="linear" slope="0.5"/>
      </feComponentTransfer>
    </filter>
    <clipPath id="framestudiojacket1">
      <rect x="0" y="0" width="1200" height="1500"/>
    </clipPath>
  </defs>

  <g clip-path="url(#framestudiojacket1)">
    <rect width="1200" height="1500" fill="url(#skystudiojacket1)"/>
    <g transform="rotate(1.35 860.96 205.13)"><polygon points="629.07,105.66 1096.63,102.86 1097.01,308.11 625.88,306.04" fill="#868864" opacity="0.99"/></g>
    <g transform="rotate(6.11 664.19 429.25)"><polygon points="467.49,315.06 863.47,314.76 866.98,546.21 464.51,545.38" fill="#5A5B45" opacity="0.95"/></g>
    <g transform="rotate(5.37 974.49 557.04)"><polygon points="791.85,361.19 1151.5,359.72 1155.95,750.57 796.11,759.67" fill="#F2EDE6" opacity="0.95"/></g>
    <g transform="rotate(2.91 972.71 192.14)"><polygon points="732.69,43.24 1208.68,39.54 1217.92,340.06 736.74,347.56" fill="#868864" opacity="0.98"/></g>
    <rect width="1200" height="1500" fill="url(#vigstudiojacket1)"/>
    <rect width="1200" height="1500" filter="url(#grainstudiojacket1)" opacity="0.13" style="mix-blend-mode:overlay"/>
    
  </g>
</svg>
